<svg width="125" height="40" viewBox="0 0 125 40" fill="none" xmlns="http://www.w3.org/2000/svg">
<path d="M118.981 2.14906C118.981 0.966061 119.94 0.00606055 121.123 0.00606055H122.552C123.12 0.00606055 123.665 0.23184 124.067 0.633731C124.469 1.03562 124.695 1.5807 124.695 2.14906C124.695 2.71742 124.469 3.2625 124.067 3.66439C123.665 4.06628 123.12 4.29206 122.552 4.29206H121.123C120.842 4.29206 120.563 4.23662 120.303 4.12891C120.043 4.02121 119.807 3.86334 119.608 3.66433C119.409 3.46532 119.251 3.22907 119.144 2.96908C119.036 2.70908 118.981 2.43044 118.981 2.14906ZM58.99 14.2901C58.99 22.1781 52.596 28.5731 44.707 28.5731C36.819 28.5731 30.424 22.1781 30.424 14.2901C30.424 6.40006 36.819 0.00706055 44.707 0.00706055C52.596 0.00706055 58.99 6.40006 58.99 14.2901ZM27.638 14.2191C28.428 14.2191 29.074 14.8591 28.995 15.6451C28.725 18.3349 27.6972 20.8929 26.0311 23.0217C24.3649 25.1505 22.1288 26.7628 19.5827 27.6712C17.0365 28.5796 14.2848 28.7467 11.6475 28.1532C9.01009 27.5596 6.59531 26.2298 4.68376 24.3183C2.77222 22.4067 1.4424 19.9919 0.848871 17.3546C0.255341 14.7172 0.422467 11.9655 1.33083 9.41936C2.23919 6.87321 3.85148 4.63712 5.98032 2.97097C8.10917 1.30482 10.6671 0.277035 13.357 0.00706055C14.142 -0.0729394 14.783 0.575061 14.783 1.36306V12.7901C14.783 13.5801 15.423 14.2191 16.212 14.2191H27.638ZM78.987 31.4301C80.1234 31.4301 81.2133 31.8815 82.0169 32.6851C82.8205 33.4887 83.272 34.5786 83.272 35.7151C83.272 36.8515 82.8205 37.9414 82.0169 38.745C81.2133 39.5486 80.1234 40.0001 78.987 40.0001H71.846C70.7095 40.0001 69.6196 39.5486 68.816 38.745C68.0124 37.9414 67.561 36.8515 67.561 35.7151C67.561 34.5786 68.0124 33.4887 68.816 32.6851C69.6196 31.8815 70.7095 31.4301 71.846 31.4301H78.987ZM74.702 28.5731C82.591 28.5731 88.986 22.1781 88.986 14.2901C88.9894 11.867 88.3736 9.48327 87.197 7.36506L89.557 5.00506C89.8288 4.73309 90.0444 4.41025 90.1915 4.05495C90.3385 3.69966 90.4142 3.31888 90.4141 2.93435C90.414 2.54983 90.3382 2.16908 90.1909 1.81386C90.0437 1.45864 89.8279 1.1359 89.556 0.864061C89.284 0.592224 88.9612 0.376618 88.6059 0.229551C88.2506 0.0824848 87.8698 0.00683844 87.4853 0.00693131C87.1007 0.00702417 86.72 0.0828544 86.3648 0.230092C86.0095 0.377331 85.6868 0.593093 85.415 0.865061L83.355 2.92506C80.8697 1.02697 77.8281 0.00102872 74.701 0.00606055C66.814 0.00706055 60.42 6.40006 60.42 14.2901C60.42 22.1781 66.814 28.5731 74.702 28.5731ZM118.981 14.2901C118.981 22.1781 112.586 28.5731 104.697 28.5731C96.809 28.5731 90.414 22.1781 90.414 14.2901C90.414 6.40006 96.809 0.00706055 104.697 0.00706055C112.586 0.00706055 118.981 6.40106 118.981 14.2901Z" fill="url(#paint0_linear_1_2303)"/>
<defs>
<linearGradient id="paint0_linear_1_2303" x1="0.499965" y1="16.0001" x2="119.5" y2="16.0001" gradientUnits="userSpaceOnUse">
<stop stop-color="#64C2DB"/>
<stop offset="0.307" stop-color="#7476ED"/>
<stop offset="0.604" stop-color="#C994DF"/>
<stop offset="1" stop-color="#E56F8C"/>
</linearGradient>
</defs>
</svg>
